HIERARCHY
ROOT Hips
{
	OFFSET 66.938599 -15.301913 79.835297
	CHANNELS 6 Xposition Yposition Zposition Xrotation Yrotation Zrotation
	JOINT spine
	{
		OFFSET 0.000000 -0.393701 6.846367
		CHANNELS 3 Xrotation Yrotation Zrotation
		JOINT spine1
		{
			OFFSET 0.000000 -0.000001 9.496208
			CHANNELS 3 Xrotation Yrotation Zrotation
			JOINT spine2
			{
				OFFSET 0.000000 -0.000002 9.099091
				CHANNELS 3 Xrotation Yrotation Zrotation
				JOINT Neck
				{
					OFFSET 0.000000 -1.113784 23.361206
					CHANNELS 3 Xrotation Yrotation Zrotation
					JOINT Head
					{
						OFFSET 0.000000 -0.000002 7.058014
						CHANNELS 3 Xrotation Yrotation Zrotation
						End Site
						{
							OFFSET 0.000000 5.634188 17.084396
						}
					}
				}
				JOINT RightShoulder
				{
					OFFSET -3.831360 0.533489 9.826309
					CHANNELS 3 Xrotation Yrotation Zrotation
					JOINT RightArm
					{
						OFFSET 0.000000 -0.000002 12.888100
						CHANNELS 3 Xrotation Yrotation Zrotation
						JOINT RightArmRoll
						{
							OFFSET 0.000000 -0.000001 6.506172
							CHANNELS 3 Xrotation Yrotation Zrotation
							JOINT RightForeArm
							{
								OFFSET 0.000000 -0.000003 18.950104
								CHANNELS 3 Xrotation Yrotation Zrotation
								JOINT RightForeArmRoll
								{
									OFFSET 0.000000 -0.000001 7.300919
									CHANNELS 3 Xrotation Yrotation Zrotation
									JOINT RightHand
									{
										OFFSET 0.000000 -0.000003 14.651398
										CHANNELS 3 Xrotation Yrotation Zrotation
										End Site
										{
											OFFSET 0.000000 0.000000 0.100006
										}
									}
								}
							}
						}
					}
				}
				JOINT LeftShoulder
				{
					OFFSET 3.831360 0.533489 9.826309
					CHANNELS 3 Xrotation Yrotation Zrotation
					JOINT LeftArm
					{
						OFFSET 0.000000 -0.000002 12.888100
						CHANNELS 3 Xrotation Yrotation Zrotation
						JOINT LeftArmRoll
						{
							OFFSET 0.000000 -0.000001 6.506172
							CHANNELS 3 Xrotation Yrotation Zrotation
							JOINT LeftForeArm
							{
								OFFSET 0.000000 -0.000003 18.950104
								CHANNELS 3 Xrotation Yrotation Zrotation
								JOINT LeftForeArmRoll
								{
									OFFSET 0.000000 -0.000001 7.300934
									CHANNELS 3 Xrotation Yrotation Zrotation
									JOINT LeftHand
									{
										OFFSET 0.000000 -0.000003 14.651398
										CHANNELS 3 Xrotation Yrotation Zrotation
										End Site
										{
											OFFSET 0.000000 0.000000 0.100006
										}
									}
								}
							}
						}
					}
				}
			}
		}
	}
	JOINT RightUpLeg
	{
		OFFSET -6.068371 0.933478 -1.112778
		CHANNELS 3 Xrotation Yrotation Zrotation
		JOINT RightUpLegRoll
		{
			OFFSET 0.000000 -0.000003 17.179596
			CHANNELS 3 Xrotation Yrotation Zrotation
			JOINT RightLeg
			{
				OFFSET 0.000000 0.000003 -21.274300
				CHANNELS 3 Xrotation Yrotation Zrotation
				JOINT RightLegRoll
				{
					OFFSET 0.000000 -0.000003 21.343903
					CHANNELS 3 Xrotation Yrotation Zrotation
					JOINT RightFoot
					{
						OFFSET 0.000000 -0.000003 17.765198
						CHANNELS 3 Xrotation Yrotation Zrotation
						JOINT RightToeBase
						{
							OFFSET 0.000000 -0.000003 14.850792
							CHANNELS 3 Xrotation Yrotation Zrotation
							End Site
							{
								OFFSET 0.006294 0.829003 7.192139
							}
						}
					}
				}
			}
		}
	}
	JOINT LeftUpLeg
	{
		OFFSET 6.068367 0.933478 -1.112778
		CHANNELS 3 Xrotation Yrotation Zrotation
		JOINT LeftUpLegRoll
		{
			OFFSET 0.000000 -0.000003 17.179703
			CHANNELS 3 Xrotation Yrotation Zrotation
			JOINT LeftLeg
			{
				OFFSET 0.000000 -0.000004 21.274200
				CHANNELS 3 Xrotation Yrotation Zrotation
				JOINT LeftLegRoll
				{
					OFFSET 0.000000 -0.000004 21.541199
					CHANNELS 3 Xrotation Yrotation Zrotation
					JOINT LeftFoot
					{
						OFFSET 0.000000 -0.000003 17.567902
						CHANNELS 3 Xrotation Yrotation Zrotation
						JOINT LeftToeBase
						{
							OFFSET 0.000000 -0.000002 14.850800
							CHANNELS 3 Xrotation Yrotation Zrotation
							End Site
							{
								OFFSET -0.028214 0.829004 7.192139
							}
						}
					}
				}
			}
		}
	}
}
MOTION
Frames: 8
Frame Time: 0.041667
67.666992 -9.489538 85.573898 -0.483739 5.319953 43.140950 -3.257326 0.822270 0.758137 -2.522855 1.608420 1.554780 -0.877754 1.626930 1.535391 -0.222921 -24.536439 6.723435 11.051972 33.262075 5.329950 -37.427838 -54.407808 -44.870146 -154.141086 -165.278447 -76.580880 -0.000001 0.000000 -0.000003 90.123445 -6.100468 11.070085 0.000001 -0.000004 -2.999986 -4.999882 -7.999983 -0.000001 -12.709652 32.404152 13.684700 -46.645162 107.378381 15.284481 0.000000 0.000001 0.000009 6.970997 2.531802 -0.129463 0.000007 -0.000014 2.992569 -5.000017 7.999920 0.000012 12.154140 -170.778676 5.267411 179.999991 -0.000006 -1.759999 160.025363 2.003851 -0.409847 -0.000003 0.000003 -0.040321 65.324407 7.156553 1.738973 35.734191 -4.994878 13.441555 -37.935540 176.978357 7.184572 -0.000003 -0.000004 -1.047932 -37.962823 -4.707199 0.205160 -0.000005 0.000002 -0.769533 70.312918 -6.946089 -1.898570 25.456959 7.355622 -0.000003 
67.695396 -9.538771 85.565208 -0.491422 5.411464 43.632850 -3.255250 0.840716 0.772170 -2.519189 1.644680 1.583723 -0.874087 1.663528 1.563912 -0.388188 -23.832217 6.606782 11.119581 32.456232 5.242323 -37.364587 -54.116685 -44.836258 -153.415324 -165.543937 -75.969592 0.000002 0.000000 -0.000003 89.775276 -6.045954 10.952330 -0.000001 -0.000005 -2.999987 -4.999884 -7.999982 0.000001 -12.911593 33.052498 14.007705 -46.605550 106.429169 15.874830 0.000001 0.000000 0.000009 7.901077 3.209299 -0.118775 0.000011 -0.000014 2.993288 -5.000017 7.999921 0.000009 12.336340 -170.988390 5.215734 179.999991 -0.000005 -1.762005 160.218261 1.941357 -0.417932 -0.000007 0.000002 -0.040019 65.299832 7.151090 1.753880 35.681882 -5.009067 13.429772 -38.062827 177.132637 7.305550 -0.000004 -0.000007 -1.046029 -38.001386 -4.799335 0.182501 -0.000005 0.000003 -0.775492 70.342827 -6.943067 -1.905575 25.456957 7.355625 -0.000004 
67.729500 -9.587521 85.546799 -0.493361 5.511073 44.123084 -3.254535 0.858398 0.785362 -2.518243 1.679427 1.610950 -0.873140 1.698604 1.590719 -0.565726 -23.112097 6.496560 11.205352 31.633232 5.158410 -37.283803 -53.814207 -44.781217 -152.686324 -165.807364 -75.329890 -0.000001 -0.000002 -0.000002 89.417469 -5.989052 10.836729 -0.000000 -0.000005 -2.999990 -4.999885 -7.999982 0.000001 -13.129796 33.711269 14.352273 -46.679265 105.465306 16.575158 0.000000 0.000002 0.000007 8.813147 3.893342 -0.129939 0.000008 -0.000014 2.994220 -5.000014 7.999922 0.000010 12.499081 -171.197230 5.160099 179.999991 -0.000004 -1.764002 160.402143 1.877633 -0.427628 -0.000006 0.000003 -0.039189 65.279369 7.145326 1.769149 35.628401 -5.023850 13.416357 -38.202365 177.285278 7.424655 -0.000005 -0.000004 -1.043990 -38.040353 -4.889455 0.160116 -0.000005 0.000003 -0.781126 70.370353 -6.940188 -1.912254 25.456959 7.355623 -0.000005 
67.745399 -9.614862 85.525612 -0.488687 5.620777 44.612159 -3.255561 0.875399 0.797574 -2.520746 1.712831 1.636228 -0.875639 1.732308 1.615586 -0.751590 -22.378869 6.391622 11.303134 30.795571 5.078140 -37.180958 -53.505100 -44.698602 -151.963485 -166.067252 -74.664124 -0.000000 -0.000002 -0.000003 89.049725 -5.930043 10.724382 0.000002 -0.000004 -2.999988 -4.999882 -7.999983 0.000002 -13.362738 34.376079 14.715158 -46.902130 104.497598 17.406688 0.000000 0.000001 0.000008 9.686048 4.570861 -0.162219 0.000010 -0.000013 2.995278 -5.000013 7.999922 0.000010 12.639165 -171.405141 5.099952 179.999991 -0.000004 -1.765990 160.574674 1.812661 -0.436890 -0.000007 0.000002 -0.037755 65.263762 7.139368 1.784561 35.574125 -5.039006 13.401696 -38.357601 177.434750 7.542861 -0.000007 -0.000005 -1.041750 -38.080384 -4.977228 0.137958 -0.000005 0.000003 -0.786344 70.394901 -6.937620 -1.918477 25.456960 7.355631 -0.000005 
67.780602 -9.655001 85.495300 -0.476583 5.742573 45.100688 -3.258675 0.891809 0.808694 -2.527423 1.745071 1.659287 -0.882314 1.764821 1.638245 -0.941960 -21.635247 6.290594 11.406940 29.945714 5.001055 -37.052267 -53.193773 -44.582707 -151.256206 -166.322100 -73.975183 0.000001 0.000000 -0.000004 88.671742 -5.868718 10.616019 0.000003 -0.000005 -2.999989 -4.999884 -7.999981 -0.000002 -13.608232 35.042408 15.092637 -47.316631 103.538762 18.397818 -0.000004 0.000001 0.000009 10.498382 5.228909 -0.213111 0.000013 -0.000013 2.996387 -5.000016 7.999921 0.000009 12.753440 -171.613994 5.034346 179.999991 -0.000005 -1.767005 160.733817 1.744567 -0.446327 -0.000003 0.000002 -0.035645 65.254227 7.133072 1.800092 35.519774 -5.054333 13.386274 -38.531819 177.581121 7.659912 -0.000003 -0.000005 -1.039250 -38.122072 -5.062354 0.116019 -0.000005 0.000002 -0.791045 70.416136 -6.935322 -1.923954 25.456959 7.355623 -0.000004 
67.803703 -9.690522 85.474602 -0.456233 5.878535 45.589027 -3.264262 0.907713 0.818568 -2.539001 1.776316 1.679887 -0.893889 1.796311 1.658480 -1.133124 -20.884171 6.191810 11.510920 29.086104 4.926177 -36.893147 -52.884775 -44.427232 -150.573515 -166.569572 -73.265575 -0.000001 0.000001 -0.000003 88.283228 -5.805213 10.512650 0.000003 -0.000005 -2.999988 -4.999885 -7.999984 0.000000 -13.864440 35.705750 15.481039 -47.975392 102.602371 19.587910 -0.000003 0.000001 0.000009 11.228419 5.854646 -0.278493 0.000008 -0.000013 2.997480 -5.000011 7.999921 0.000010 12.838677 -171.821769 4.963255 179.999991 -0.000005 -1.765992 160.876923 1.674276 -0.456569 -0.000004 0.000001 -0.032782 65.251536 7.126607 1.815550 35.465720 -5.069618 13.370456 -38.728101 177.724391 7.775585 -0.000005 -0.000006 -1.036431 -38.166178 -5.144500 0.094245 -0.000005 0.000002 -0.795141 70.433566 -6.933407 -1.928735 25.456957 7.355625 -0.000005 
67.825600 -9.721994 85.451393 -0.426884 6.030723 46.077651 -3.272675 0.923198 0.827099 -2.556222 1.806731 1.697798 -0.911095 1.826939 1.676017 -1.321430 -20.128277 6.093382 11.609575 28.218950 4.852036 -36.699563 -52.582672 -44.226305 -149.924510 -166.807426 -72.538549 0.000000 -0.000003 -0.000003 87.883880 -5.739571 10.415309 0.000002 -0.000007 -2.999992 -4.999883 -7.999982 0.000000 -14.129121 36.361738 15.876326 -48.937892 101.704399 21.023696 -0.000002 0.000002 0.000008 11.854166 6.435452 -0.352853 0.000010 -0.000011 2.998459 -5.000012 7.999921 0.000009 12.891775 -172.029365 4.886047 179.999991 -0.000005 -1.764998 161.001998 1.600826 -0.467946 -0.000004 0.000000 -0.029082 65.256898 7.119834 1.831011 35.412659 -5.084676 13.354726 -38.949830 177.864574 7.889641 -0.000008 -0.000006 -1.033238 -38.213180 -5.223353 0.072644 -0.000005 0.000003 -0.798527 70.446762 -6.931873 -1.932647 25.456955 7.355620 -0.000006 
67.844894 -9.745482 85.418404 -0.387813 6.201259 46.567195 -3.284280 0.938348 0.834143 -2.579786 1.836487 1.712770 -0.934660 1.856873 1.690644 -1.503381 -19.370430 5.993159 11.697176 27.346809 4.777133 -36.467599 -52.291645 -43.974445 -149.318058 -167.032563 -71.797159 0.000001 -0.000002 -0.000003 87.473379 -5.671878 10.324821 0.000001 -0.000006 -2.999988 -4.999884 -7.999985 -0.000001 -14.399758 37.006190 16.274244 -50.273044 100.862011 22.762054 -0.000004 0.000000 0.000008 12.353329 6.958978 -0.429678 0.000008 -0.000013 2.999261 -5.000011 7.999921 0.000010 12.909555 -172.236757 4.802350 179.999991 -0.000004 -1.763000 161.106459 1.524250 -0.479398 -0.000003 0.000001 -0.024485 65.271070 7.112822 1.846342 35.361064 -5.099303 13.339513 -39.200313 178.000891 8.002539 -0.000007 -0.000003 -1.029629 -38.263847 -5.298590 0.051158 -0.000005 0.000003 -0.801118 70.455437 -6.930775 -1.935418 25.456957 7.355622 -0.000002 
